<svg width="24" height="24" viewBox="0 0 24 24" fill="none" xmlns="http://www.w3.org/2000/svg">
<path d="M12 8.29999C13.9 8.29999 15.5 6.69999 15.5 4.79999C15.5 2.89999 13.9 1.29999 12 1.29999C10.1 1.29999 8.49999 2.79999 8.49999 4.79999C8.49999 6.79999 10.1 8.29999 12 8.29999ZM12 2.79999C13.1 2.79999 14 3.69999 14 4.79999C14 5.89999 13.1 6.79999 12 6.79999C10.9 6.79999 9.99999 5.89999 9.99999 4.79999C9.99999 3.69999 10.9 2.79999 12 2.79999ZM20.2 11.8V10.8C20.2 10.2 20 9.69999 19.6 9.29999C19.2 8.89999 18.6 8.69999 18.1 8.79999C16 8.79999 13.9 9.39999 12 10.4C10.1 9.39999 7.99999 8.79999 5.89999 8.79999C5.39999 8.79999 4.79999 8.99999 4.39999 9.29999C3.99999 9.69999 3.69999 10.2 3.79999 10.8V11.8C2.99999 11.9 2.29999 12.6 2.29999 13.5V15.5C2.29999 16.4 2.99999 17.1 3.79999 17.2V18.2C3.79999 19.1 4.49999 19.9 5.49999 19.9C7.69999 19.9 9.79999 20.5 11.6 21.6C11.7 21.7 11.8 21.7 11.9 21.7C12 21.7 12.1 21.7 12.2 21.6C14.1 20.5 16.2 19.9 18.4 19.9C19.3 19.9 20.1 19.1 20.1 18.2V17.2C20.9 17.1 21.6 16.4 21.6 15.5V13.5C21.8 12.6 21.1 11.9 20.2 11.8ZM3.79999 13.5C3.79999 13.4 3.89999 13.3 3.99999 13.3H4.99999C5.69999 13.3 6.19999 13.9 6.19999 14.5C6.19999 15.1 5.69999 15.8 4.99999 15.8H3.99999C3.89999 15.8 3.79999 15.7 3.79999 15.6V13.5ZM5.19999 18.2V17.2C6.59999 17.1 7.69999 15.9 7.69999 14.5C7.69999 13.1 6.59999 11.9 5.19999 11.8V10.8C5.19999 10.7 5.29999 10.5 5.39999 10.4C5.49999 10.3 5.59999 10.3 5.79999 10.3C7.69999 10.4 9.59999 10.9 11.3 11.8V19.8C9.49999 18.9 7.49999 18.5 5.49999 18.5C5.39999 18.5 5.29999 18.3 5.19999 18.2ZM18.5 18.5C16.5 18.5 14.5 19 12.7 19.8V11.7C14.4 10.8 16.3 10.3 18.2 10.2C18.4 10.2 18.5 10.2 18.6 10.3C18.7 10.4 18.8 10.5 18.8 10.7V11.7C17.4 11.8 16.3 13 16.3 14.4C16.3 15.8 17.4 17 18.8 17.1V18.1C18.7 18.3 18.6 18.5 18.5 18.5ZM20.2 15.5C20.2 15.6 20.1 15.7 20 15.7H19C18.3 15.7 17.8 15.1 17.8 14.5C17.8 13.9 18.4 13.3 19 13.3H20C20.1 13.3 20.2 13.4 20.2 13.5V15.5Z" fill="#5C5C5C"/>
</svg>
