<svg width="16" height="16" viewBox="0 0 16 16" fill="none" xmlns="http://www.w3.org/2000/svg">
<path fill-rule="evenodd" clip-rule="evenodd" d="M6.12423 2.4975C5.98599 2.4975 5.87392 2.60957 5.87392 2.74781V3.74843H10.1261V2.74781C10.1261 2.60957 10.014 2.4975 9.8758 2.4975H6.12423ZM11.1261 3.74844V2.74781C11.1261 2.05728 10.5663 1.4975 9.8758 1.4975H6.12423C5.43371 1.4975 4.87392 2.05728 4.87392 2.74781V3.74844H2.66446C2.38832 3.74844 2.16446 3.97229 2.16446 4.24844C2.16446 4.52458 2.38832 4.74844 2.66446 4.74844H3.03512L3.64335 12.6553C3.72353 13.6976 4.59268 14.5025 5.63808 14.5025H10.362C11.4074 14.5025 12.2765 13.6976 12.3567 12.6553L12.9649 4.74844H13.3356C13.6117 4.74844 13.8356 4.52458 13.8356 4.24844C13.8356 3.97229 13.6117 3.74844 13.3356 3.74844H11.1261ZM4.03808 4.74844L4.6404 12.5786C4.6805 13.0999 5.11522 13.5025 5.63808 13.5025H10.362C10.8848 13.5025 11.3195 13.0999 11.3596 12.5786L11.962 4.74844H4.03808ZM6.68697 6.74968C6.96311 6.74968 7.18697 6.97354 7.18697 7.24968V11.0012C7.18697 11.2774 6.96311 11.5012 6.68697 11.5012C6.41083 11.5012 6.18697 11.2774 6.18697 11.0012V7.24968C6.18697 6.97354 6.41083 6.74968 6.68697 6.74968ZM9.31306 6.74968C9.5892 6.74968 9.81306 6.97354 9.81306 7.24968V11.0012C9.81306 11.2774 9.5892 11.5012 9.31306 11.5012C9.03692 11.5012 8.81306 11.2774 8.81306 11.0012V7.24968C8.81306 6.97354 9.03692 6.74968 9.31306 6.74968Z" fill="#5C5C5C"/>
</svg>
