<svg width="16" height="16" viewBox="0 0 16 16" fill="none" xmlns="http://www.w3.org/2000/svg">
<g clip-path="url(#clip0_169_17131)">
<path d="M10.5333 9C10.8 9 11.0667 8.8 11.0667 8.46667C11.0667 8.2 10.8667 7.93333 10.5333 7.93333C10.2667 7.93333 10 8.13333 10.0667 8.46667C10 8.73333 10.2 9 10.5333 9Z" fill="#ADADAD"/>
<path d="M8 9C8.26667 9 8.53333 8.8 8.53333 8.46667C8.53333 8.2 8.33333 7.93333 8 7.93333C7.73333 7.93333 7.46667 8.13333 7.53333 8.46667C7.53333 8.73333 7.73333 9 8 9Z" fill="#ADADAD"/>
<path d="M5.53333 9C5.8 9 6.06667 8.8 6.06667 8.46667C6 8.2 5.8 8 5.53333 8C5.26667 8 5 8 5.06667 8.53333C5.06667 8.76803 5.2 9 5.53333 9Z" fill="#ADADAD"/>
<path d="M5.53333 11C5.8 11 6.06667 10.8 6.06667 10.4667C6 10.2 5.8 10 5.53333 10C5.26667 10 5 10.2 5.06667 10.5333C5 10.7333 5.2 11 5.53333 11Z" fill="#ADADAD"/>
<path d="M8 11C8.26667 11 8.53333 10.8 8.53333 10.4667C8.53333 10.2 8.33333 9.93333 8 9.93333C7.73333 9.93333 7.46667 10.1333 7.53333 10.4667C7.53333 10.7333 7.73333 11 8 11Z" fill="#ADADAD"/>
<path fill-rule="evenodd" clip-rule="evenodd" d="M8 0C3.6 0 0 3.6 0 8C0 12.4 3.6 16 8 16C12.4 16 16 12.4 16 8C16 3.6 12.4 0 8 0ZM11.3333 12.4667C11.8667 12.4667 12.3333 12 12.3333 11.4667V6.86667H3.33333V11.4667C3.33333 12 3.8 12.4667 4.33333 12.4667H11.3333ZM3.33333 6.13333H12.3333V5C12.3333 4.46667 11.8667 4 11.3333 4H10.4667V3C10.4667 2.8 10.2667 2.6 10.0667 2.6C9.86667 2.6 9.66667 2.8 9.66667 3V4H6.4V3C6.4 2.8 6.2 2.6 6 2.6C5.8 2.6 5.6 2.8 5.6 3V4H4.33333C3.8 4 3.33333 4.46667 3.33333 5V6.13333Z" fill="#ADADAD"/>
</g>
<defs>
<clipPath id="clip0_169_17131">
<rect width="16" height="16" fill="white"/>
</clipPath>
</defs>
</svg>
