<svg width="16" height="16" viewBox="0 0 16 16" fill="none" xmlns="http://www.w3.org/2000/svg">
<g clip-path="url(#clip0_169_17134)">
<path fill-rule="evenodd" clip-rule="evenodd" d="M8 0C3.6 0 0 3.6 0 8C0 12.4 3.6 16 8 16C12.4 16 16 12.4 16 8C16 3.6 12.4 0 8 0ZM3.33333 8C3.33333 10.6 5.4 12.6667 8 12.6667C10.6 12.6667 12.6667 10.6 12.6667 8C12.6667 5.4 10.6 3.33333 8 3.33333C5.4 3.33333 3.33333 5.4 3.33333 8ZM10.0667 8H8V5.4C8 5.2 7.86667 5.06667 7.66667 5.06667C7.46667 5.06667 7.33333 5.2 7.33333 5.4V8.33333C7.33333 8.46667 7.4 8.53333 7.46667 8.6C7.5 8.6 7.53333 8.61667 7.56667 8.63333C7.6 8.65 7.63333 8.66667 7.66667 8.66667H10.0667C10.2667 8.66667 10.4 8.53333 10.4 8.33333C10.4 8.13333 10.2667 8 10.0667 8Z" fill="#ADADAD"/>
</g>
<defs>
<clipPath id="clip0_169_17134">
<rect width="16" height="16" fill="white"/>
</clipPath>
</defs>
</svg>
