<svg width="24" height="24" viewBox="0 0 24 24" fill="none" xmlns="http://www.w3.org/2000/svg">
<path d="M18.75 3.00003H4.75C4.28668 3.00265 3.84309 3.18787 3.51546 3.51549C3.18784 3.84311 3.00263 4.28671 3 4.75003V7.34003C3.00236 7.801 3.18548 8.24264 3.51 8.57003L8.51 13.57V19.51C8.50955 19.8146 8.57869 20.1153 8.71213 20.3891C8.84558 20.663 9.03981 20.9027 9.28 21.09C9.63359 21.3597 10.0653 21.5071 10.51 21.51C10.6751 21.5092 10.8396 21.489 11 21.45L13.49 20.82C13.9236 20.7128 14.3088 20.4636 14.5843 20.112C14.8598 19.7604 15.0097 19.3267 15.01 18.88V13.56L20.01 8.56003C20.172 8.39886 20.3005 8.20718 20.3881 7.99606C20.4756 7.78494 20.5205 7.55857 20.52 7.33003V4.75003C20.5187 4.5189 20.4719 4.29029 20.3822 4.07726C20.2925 3.86423 20.1618 3.67094 19.9974 3.50844C19.8331 3.34594 19.6383 3.2174 19.4243 3.13017C19.2103 3.04293 18.9811 2.99871 18.75 3.00003ZM19 7.34003C18.9981 7.40333 18.9733 7.46378 18.93 7.51003L13.75 12.75C13.6822 12.8194 13.6279 12.9008 13.59 12.99C13.5509 13.0817 13.5305 13.1803 13.53 13.28V18.9C13.5293 19.0121 13.4917 19.1208 13.423 19.2094C13.3543 19.298 13.2584 19.3615 13.15 19.39L10.65 20.01C10.5763 20.0295 10.499 20.0315 10.4243 20.0159C10.3497 20.0003 10.2797 19.9675 10.22 19.92C10.1599 19.8745 10.1114 19.8155 10.0784 19.7477C10.0454 19.68 10.0288 19.6054 10.03 19.53V13.25C10.0295 13.1503 10.0091 13.0517 9.97 12.96C9.91116 12.8763 9.8364 12.8049 9.75 12.75L4.57 7.51003C4.52674 7.46378 4.50185 7.40333 4.5 7.34003V4.75003C4.5 4.68372 4.52634 4.62014 4.57322 4.57325C4.62011 4.52637 4.6837 4.50003 4.75 4.50003H18.75C18.8163 4.50003 18.8799 4.52637 18.9268 4.57325C18.9737 4.62014 19 4.68372 19 4.75003V7.34003Z" fill="#5C5C5C"/>
</svg>
