<svg width="24" height="24" viewBox="0 0 24 24" fill="none" xmlns="http://www.w3.org/2000/svg">
<path fill-rule="evenodd" clip-rule="evenodd" d="M12.4881 2.43055C12.2072 2.18982 11.7928 2.18982 11.5119 2.43055L2.51193 10.1445C2.19743 10.4141 2.161 10.8876 2.43056 11.2021C2.70012 11.5166 3.1736 11.553 3.4881 11.2835L3.53601 11.2424V21C3.53601 21.4142 3.8718 21.75 4.28601 21.75H19.714C20.1282 21.75 20.464 21.4142 20.464 21V11.2424L20.5119 11.2835C20.8264 11.553 21.2999 11.5166 21.5695 11.2021C21.839 10.8876 21.8026 10.4141 21.4881 10.1445L20.464 9.2668V3C20.464 2.58579 20.1282 2.25 19.714 2.25H15.857C15.4428 2.25 15.107 2.58579 15.107 3V4.67525L12.4881 2.43055ZM5.03601 9.95672V20.25H8.67901V16.571C8.67901 15.0518 9.9098 13.821 11.429 13.821H12.572C14.0912 13.821 15.322 15.0518 15.322 16.571V20.25H18.964V9.95672L15.3597 6.86738L12 3.98779L5.03601 9.95672ZM18.964 7.98113L16.607 5.96092V3.75H18.964V7.98113ZM11.429 15.321C10.7382 15.321 10.179 15.8802 10.179 16.571V20.25H13.822V16.571C13.822 15.8802 13.2628 15.321 12.572 15.321H11.429Z" fill="#5C5C5C"/>
</svg>
