<svg width="20" height="20" viewBox="0 0 20 20" fill="none" xmlns="http://www.w3.org/2000/svg">
<path fill-rule="evenodd" clip-rule="evenodd" d="M10 0.25C4.61479 0.25 0.25 4.61479 0.25 10C0.25 15.3852 4.61479 19.75 10 19.75C15.3852 19.75 19.75 15.3852 19.75 10C19.75 4.61479 15.3852 0.25 10 0.25ZM10 1.75C5.44321 1.75 1.75 5.44321 1.75 10C1.75 14.5568 5.44321 18.25 10 18.25C14.5568 18.25 18.25 14.5568 18.25 10C18.25 5.44321 14.5568 1.75 10 1.75Z" fill="#5C5C5C"/>
<path d="M10 5.083C8.48079 5.083 7.25 6.31379 7.25 7.833C7.25 8.24721 7.58579 8.583 8 8.583C8.41421 8.583 8.75 8.24721 8.75 7.833C8.75 7.14221 9.30921 6.583 10 6.583C10.6908 6.583 11.25 7.14221 11.25 7.833C11.25 8.23868 11.0384 8.47695 10.5922 8.7778C10.0379 9.15036 9.25 9.78905 9.25 11V11.25C9.25 11.6642 9.58579 12 10 12C10.4142 12 10.75 11.6642 10.75 11.25V11C10.75 10.5773 10.9717 10.33 11.4293 10.0225L11.4302 10.0219C11.9717 9.65689 12.75 9.02718 12.75 7.833C12.75 6.31379 11.5192 5.083 10 5.083Z" fill="#5C5C5C"/>
<path d="M9.999 13.25C9.44874 13.25 8.99745 13.6965 9 14.2527C9.00147 14.8037 9.44869 15.25 10 15.25C10.5522 15.25 11 14.8022 11 14.25C11 13.6958 10.5503 13.25 9.999 13.25Z" fill="#5C5C5C"/>
</svg>
