<svg width="24" height="24" viewBox="0 0 24 24" fill="none" xmlns="http://www.w3.org/2000/svg">
<path fill-rule="evenodd" clip-rule="evenodd" d="M12.1768 3.23744C12.0791 3.13981 11.9209 3.13981 11.8232 3.23744L8.82323 6.23744C8.49504 6.56563 8.04992 6.75 7.58579 6.75H4.737C4.54427 6.75 4.42403 6.95887 4.5208 7.12553L11.7838 19.634C11.8802 19.8 12.1198 19.8 12.2162 19.634L19.4792 7.12554C19.576 6.95887 19.4557 6.75 19.263 6.75H16.4142C15.9501 6.75 15.505 6.56563 15.1768 6.23744L12.1768 3.23744ZM10.7626 2.17678C11.446 1.49336 12.554 1.49336 13.2374 2.17678L16.2374 5.17678C16.2843 5.22366 16.3479 5.25 16.4142 5.25H19.263C20.6121 5.25 21.4538 6.71208 20.7764 7.87874L13.5134 20.3872C12.8389 21.5489 11.1611 21.5489 10.4866 20.3872L3.22362 7.87874C2.5462 6.71207 3.38793 5.25 4.737 5.25H7.58579C7.65209 5.25 7.71568 5.22366 7.76257 5.17678L10.7626 2.17678Z" fill="#5C5C5C"/>
</svg>
