<svg width="16" height="16" viewBox="0 0 16 16" fill="none" xmlns="http://www.w3.org/2000/svg">
<g clip-path="url(#clip0_169_17128)">
<path d="M7.94629 8.54232C7.01216 8.54232 6.25505 7.78521 6.25505 6.85108C6.25505 5.91694 7.01216 5.15983 7.94629 5.15983C8.88042 5.15983 9.63753 5.91694 9.63753 6.85108C9.63753 7.78521 8.88042 8.54232 7.94629 8.54232Z" fill="#ADADAD"/>
<path fill-rule="evenodd" clip-rule="evenodd" d="M8 16C12.4183 16 16 12.4183 16 8C16 3.58172 12.4183 0 8 0C3.58172 0 0 3.58172 0 8C0 12.4183 3.58172 16 8 16ZM7.94624 13.0523C7.94624 13.0523 4 9.8107 4 6.85102C4 4.67157 5.76679 2.90479 7.94624 2.90479C10.1257 2.90479 11.8925 4.67157 11.8925 6.85102C11.8925 9.8107 7.94624 13.0523 7.94624 13.0523Z" fill="#ADADAD"/>
</g>
<defs>
<clipPath id="clip0_169_17128">
<rect width="16" height="16" fill="white"/>
</clipPath>
</defs>
</svg>
