<svg width="512" height="160" viewBox="0 0 512 160" fill="none" xmlns="http://www.w3.org/2000/svg">
<path d="M19.0323 107.441H5.67123V61.3018H17.4943V66.6847C18.9682 64.9544 20.9868 63.4165 23.55 62.0708C26.1133 60.661 28.997 59.9561 32.2011 59.9561C38.5452 59.9561 43.2552 62.231 46.3311 66.7808C51.0091 62.231 56.1356 59.9561 61.7107 59.9561C67.6062 59.9561 71.9318 61.8144 74.6873 65.5312C77.5069 69.1838 78.9167 73.4132 78.9167 78.2194V107.441H65.6517V79.0845C65.6517 76.7134 64.9789 74.8551 63.6332 73.5094C62.3515 72.1636 60.6213 71.4908 58.4426 71.4908C55.0462 71.4908 52.0023 73.0287 49.3109 76.1047C49.375 76.5532 49.407 77.2581 49.407 78.2194V107.441H36.1421V79.0845C36.1421 76.7134 35.4692 74.8551 34.1235 73.5094C32.8419 72.1636 31.1117 71.4908 28.9329 71.4908C25.1521 71.4908 21.8519 73.3492 19.0323 77.0659V107.441Z" fill="#333333"/>
<path d="M110.293 92.4455L121.732 61.3018H135.573L115.099 113.016C110.55 124.23 103.917 129.837 95.2019 129.837C93.3436 129.837 90.9405 129.485 87.9927 128.78V117.726C90.1074 118.174 91.9338 118.399 93.4717 118.399C98.3419 118.399 101.995 115.034 104.43 108.306L104.526 108.113L82.706 61.3018H96.836L110.293 92.4455Z" fill="#333333"/>
<g clip-path="url(#clip0_320_2404)">
<path d="M219.825 50.4392L163.444 24.1054C162.282 23.5635 160.986 23.3737 159.717 23.5596C155.726 24.119 152.069 28.0773 152.061 32.8825L151.841 150.916C151.841 155.783 155.532 158.646 159.484 158.09C160.991 157.879 162.537 157.17 163.93 155.89L211.526 112.11L190.907 102.478C186.112 100.244 183.868 95.6235 183.647 91.2802C183.426 86.9502 185.117 82.364 188.704 79.0651L219.825 50.4392Z" fill="url(#paint0_radial_320_2404)"/>
<path d="M282.315 2.84538C286.273 2.28989 289.968 5.15279 289.958 10.0201L289.74 128.053C289.731 132.855 286.073 136.813 282.084 137.376C280.815 137.562 279.519 137.373 278.357 136.83L193.392 97.1442C188.537 94.8815 188.168 87.5533 192.687 83.3969L277.869 5.04596C279.264 3.76601 280.808 3.05709 282.315 2.84538Z" fill="url(#paint1_radial_320_2404)"/>
</g>
<path d="M324.661 107.441H311.3V61.3018H324.661V107.441ZM325.814 46.0183C325.814 48.5175 325.077 50.4079 323.604 51.6895C322.13 52.9712 320.239 53.612 317.932 53.612C315.69 53.612 313.831 52.9712 312.357 51.6895C310.883 50.4079 310.146 48.5175 310.146 46.0183C310.146 43.5832 310.883 41.7248 312.357 40.4432C313.831 39.1615 315.69 38.5207 317.932 38.5207C320.175 38.5207 322.034 39.1615 323.507 40.4432C325.045 41.7248 325.814 43.5832 325.814 46.0183Z" fill="#333333"/>
<path d="M339.634 47.8446L352.898 44.6726V61.3018H367.509V72.5481H352.898V90.6192C352.898 95.2331 355.366 97.54 360.3 97.54C363.248 97.54 366.035 97.0273 368.663 96.002V106.768C364.818 108.113 360.684 108.786 356.263 108.786C351.393 108.786 347.387 107.537 344.247 105.038C341.172 102.538 339.634 98.5973 339.634 93.2145V72.5481H331.848V61.3018H339.634V47.8446Z" fill="#333333"/>
<path d="M389.71 107.441H376.349V61.3018H388.172V66.6846C389.646 64.9544 391.665 63.4165 394.228 62.0708C396.791 60.661 399.675 59.9561 402.879 59.9561C409.223 59.9561 413.933 62.231 417.009 66.7808C421.687 62.231 426.814 59.9561 432.389 59.9561C438.284 59.9561 442.61 61.8144 445.365 65.5312C448.185 69.1838 449.595 73.4132 449.595 78.2194V107.441H436.33V79.0845C436.33 76.7134 435.657 74.8551 434.311 73.5093C433.03 72.1636 431.299 71.4908 429.121 71.4908C425.724 71.4908 422.68 73.0287 419.989 76.1047C420.053 76.5532 420.085 77.2581 420.085 78.2194V107.441H406.82V79.0845C406.82 76.7134 406.147 74.8551 404.802 73.5093C403.52 72.1636 401.79 71.4908 399.611 71.4908C395.83 71.4908 392.53 73.3491 389.71 77.0659V107.441Z" fill="#333333"/>
<path d="M465.263 102.346C460.329 98.0527 457.861 92.061 457.861 84.3712C457.861 76.6814 460.329 70.6898 465.263 66.3963C470.197 62.1028 476.221 59.9561 483.334 59.9561C490.511 59.9561 496.535 62.1028 501.405 66.3963C506.339 70.6898 508.806 76.6814 508.806 84.3712C508.806 92.061 506.339 98.0527 501.405 102.346C496.535 106.64 490.511 108.786 483.334 108.786C476.221 108.786 470.197 106.64 465.263 102.346ZM492.081 93.4067C494.196 91.0357 495.253 88.0239 495.253 84.3712C495.253 80.7185 494.196 77.7387 492.081 75.4318C489.966 73.0608 487.051 71.8753 483.334 71.8753C479.617 71.8753 476.701 73.0608 474.587 75.4318C472.536 77.7387 471.511 80.7185 471.511 84.3712C471.511 88.0239 472.536 91.0357 474.587 93.4067C476.701 95.7137 479.617 96.8671 483.334 96.8671C487.051 96.8671 489.966 95.7137 492.081 93.4067Z" fill="#333333"/>
<defs>
<radialGradient id="paint0_radial_320_2404" cx="0" cy="0" r="1" gradientUnits="userSpaceOnUse" gradientTransform="translate(355.48 55.2202) rotate(172.938) scale(204.808 79.0223)">
<stop stop-color="#E02E2E"/>
<stop offset="1" stop-color="#EE215B"/>
</radialGradient>
<radialGradient id="paint1_radial_320_2404" cx="0" cy="0" r="1" gradientUnits="userSpaceOnUse" gradientTransform="translate(151.553 104.866) rotate(-9.98227) scale(140.367 80.3386)">
<stop stop-color="#0091FF"/>
<stop offset="1" stop-color="#1846C7"/>
</radialGradient>
<clipPath id="clip0_320_2404">
<rect width="156.935" height="156.935" fill="white" transform="translate(142.713 2)"/>
</clipPath>
</defs>
</svg>
