<svg width="24" height="24" viewBox="0 0 24 24" fill="none" xmlns="http://www.w3.org/2000/svg">
<path d="M5 3.25C3.48079 3.25 2.25 4.48079 2.25 6V19C2.25 20.5192 3.48079 21.75 5 21.75H9C9.41421 21.75 9.75 21.4142 9.75 21C9.75 20.5858 9.41421 20.25 9 20.25H5C4.30921 20.25 3.75 19.6908 3.75 19V6C3.75 5.30921 4.30921 4.75 5 4.75H6.25V5C6.25 5.41421 6.58579 5.75 7 5.75C7.41421 5.75 7.75 5.41421 7.75 5V4.75H10.25V5C10.25 5.41421 10.5858 5.75 11 5.75C11.4142 5.75 11.75 5.41421 11.75 5V4.75H14.25V5C14.25 5.41421 14.5858 5.75 15 5.75C15.4142 5.75 15.75 5.41421 15.75 5V4.75H17C17.6908 4.75 18.25 5.30921 18.25 6V9C18.25 9.41421 18.5858 9.75 19 9.75C19.4142 9.75 19.75 9.41421 19.75 9V6C19.75 4.48079 18.5192 3.25 17 3.25H15.75V3C15.75 2.58579 15.4142 2.25 15 2.25C14.5858 2.25 14.25 2.58579 14.25 3V3.25H11.75V3C11.75 2.58579 11.4142 2.25 11 2.25C10.5858 2.25 10.25 2.58579 10.25 3V3.25H7.75V3C7.75 2.58579 7.41421 2.25 7 2.25C6.58579 2.25 6.25 2.58579 6.25 3V3.25H5Z" fill="#5C5C5C"/>
<path fill-rule="evenodd" clip-rule="evenodd" d="M22.0267 11.9751C21.0612 11.0081 19.4961 11.0103 18.5317 11.9747L17.2497 13.2497L12.7627 17.7477C12.434 18.0764 12.25 18.5211 12.25 18.985V21C12.25 21.4142 12.5858 21.75 13 21.75H15.015C15.4782 21.75 15.923 21.5665 16.2511 21.2386L20.7503 16.7503L22.0249 15.4697C22.9912 14.5049 22.9913 12.9401 22.0267 11.9751ZM20.9653 13.0349C20.5868 12.6559 19.9719 12.6557 19.5923 13.0353L18.8444 13.7838L20.2167 15.156L20.9649 14.4084C21.3445 14.0294 21.3443 13.414 20.9653 13.0349ZM13.8235 18.8081C13.7762 18.8555 13.75 18.9189 13.75 18.985V20.25H15.015C15.0817 20.25 15.1448 20.2236 15.1907 20.1777L19.1556 16.2162L17.7841 14.8448L13.8235 18.8081Z" fill="#5C5C5C"/>
<path d="M7 8.25C6.58579 8.25 6.25 8.58579 6.25 9C6.25 9.41421 6.58579 9.75 7 9.75H15C15.4142 9.75 15.75 9.41421 15.75 9C15.75 8.58579 15.4142 8.25 15 8.25H7Z" fill="#5C5C5C"/>
<path d="M7 12.25C6.58579 12.25 6.25 12.5858 6.25 13C6.25 13.4142 6.58579 13.75 7 13.75H12C12.4142 13.75 12.75 13.4142 12.75 13C12.75 12.5858 12.4142 12.25 12 12.25H7Z" fill="#5C5C5C"/>
<path d="M7 16.25C6.58579 16.25 6.25 16.5858 6.25 17C6.25 17.4142 6.58579 17.75 7 17.75H10C10.4142 17.75 10.75 17.4142 10.75 17C10.75 16.5858 10.4142 16.25 10 16.25H7Z" fill="#5C5C5C"/>
</svg>
