<svg width="24" height="24" viewBox="0 0 24 24" fill="none" xmlns="http://www.w3.org/2000/svg">
<path fill-rule="evenodd" clip-rule="evenodd" d="M10.3913 11.4317C10.6842 11.7245 10.6842 12.1994 10.3913 12.4923L7.89024 14.9934C7.74959 15.134 7.55882 15.213 7.35991 15.213C7.161 15.213 6.97023 15.134 6.82958 14.9934L5.32896 13.4927C5.03606 13.1998 5.03606 12.725 5.32896 12.4321C5.62185 12.1392 6.09672 12.1392 6.38962 12.4321L7.35991 13.4024L9.33062 11.4317C9.62352 11.1388 10.0984 11.1388 10.3913 11.4317Z" fill="#5C5C5C"/>
<path fill-rule="evenodd" clip-rule="evenodd" d="M10.3913 12.4923C10.6842 12.1994 10.6842 11.7245 10.3913 11.4317C10.0984 11.1388 9.62352 11.1388 9.33062 11.4317L7.35991 13.4024L6.38962 12.4321C6.09672 12.1392 5.62185 12.1392 5.32896 12.4321C5.03606 12.725 5.03606 13.1998 5.32896 13.4927L6.82958 14.9934C6.97023 15.134 7.161 15.213 7.35991 15.213C7.55882 15.213 7.74959 15.134 7.89024 14.9934L10.3913 12.4923Z" fill="#5C5C5C"/>
<path fill-rule="evenodd" clip-rule="evenodd" d="M7.99818 2.24625C6.47893 2.24625 5.24734 3.47784 5.24734 4.99708V7.32309C3.53504 7.67006 2.24609 9.18367 2.24609 10.9983V15.0025C2.24609 16.8172 3.53504 18.3308 5.24734 18.6777V19.0029C5.24734 20.5222 6.47893 21.7537 7.99818 21.7537H18.0023C19.5216 21.7537 20.7532 20.5222 20.7532 19.0029V7.99833V7.82626C20.7532 7.09656 20.463 6.39693 19.9472 5.88126L17.1181 3.05216C16.6024 2.53637 15.9029 2.24625 15.1732 2.24625H15.0011H7.99818ZM5.99609 8.74833C4.75345 8.74833 3.74609 9.75569 3.74609 10.9983V15.0025C3.74609 16.2451 4.75345 17.2525 5.99609 17.2525H10.0003C11.2429 17.2525 12.2503 16.2451 12.2503 15.0025V10.9983C12.2503 9.75569 11.2429 8.74833 10.0003 8.74833H5.99609ZM14.2511 6.99791C14.2511 7.96464 15.0348 8.74833 16.0015 8.74833H19.2532V19.0029C19.2532 19.6937 18.6932 20.2537 18.0023 20.2537H7.99818C7.30736 20.2537 6.74734 19.6937 6.74734 19.0029V18.7525H10.0003C12.0713 18.7525 13.7503 17.0736 13.7503 15.0025V10.9983C13.7503 8.92726 12.0713 7.24833 10.0003 7.24833H6.74734V4.99708C6.74734 4.30626 7.30736 3.74625 7.99818 3.74625H14.2511V6.99791ZM15.7511 6.99791C15.7511 7.13621 15.8632 7.24833 16.0015 7.24833H19.1115C19.0531 7.13643 18.9776 7.03299 18.8867 6.94208L17.3644 5.41977L16.0574 4.11282C15.9665 4.02187 15.863 3.94636 15.7511 3.88798V6.99791Z" fill="#5C5C5C"/>
</svg>
