<svg width="24" height="24" viewBox="0 0 24 24" fill="none" xmlns="http://www.w3.org/2000/svg">
<path fill-rule="evenodd" clip-rule="evenodd" d="M3.25 5C3.25 3.48079 4.48079 2.25 6 2.25H8H18C19.5192 2.25 20.75 3.48079 20.75 5V9.41851C21.3411 9.69947 21.75 10.3022 21.75 11V13C21.75 13.6978 21.3411 14.3005 20.75 14.5815V19C20.75 20.5192 19.5192 21.75 18 21.75H8H6C4.48079 21.75 3.25 20.5192 3.25 19V5ZM18 10.75C17.3092 10.75 16.75 11.3092 16.75 12C16.75 12.6908 17.3092 13.25 18 13.25H20C20.1378 13.25 20.25 13.1378 20.25 13V11C20.25 10.8622 20.1378 10.75 20 10.75H18ZM18 3.75C18.6908 3.75 19.25 4.30921 19.25 5V9.25H18C16.4808 9.25 15.25 10.4808 15.25 12C15.25 13.5192 16.4808 14.75 18 14.75H19.25V19C19.25 19.6908 18.6908 20.25 18 20.25H8.75V3.75H18ZM6 3.75C5.30921 3.75 4.75 4.30921 4.75 5V19C4.75 19.6908 5.30921 20.25 6 20.25H7.25V3.75H6Z" fill="#5C5C5C"/>
</svg>
