<svg width="24" height="24" viewBox="0 0 24 24" fill="none" xmlns="http://www.w3.org/2000/svg">
<path fill-rule="evenodd" clip-rule="evenodd" d="M14.5496 11.4998C14.5496 11.0579 14.1914 10.6998 13.7496 10.6998C13.3077 10.6998 12.9496 11.0579 12.9496 11.4998C12.9496 11.9416 13.3077 12.2998 13.7496 12.2998C14.1914 12.2998 14.5496 11.9416 14.5496 11.4998Z" fill="#5C5C5C"/>
<path fill-rule="evenodd" clip-rule="evenodd" d="M11.0481 14.501C11.0481 14.0592 10.69 13.701 10.2481 13.701C9.80628 13.701 9.44809 14.0592 9.44809 14.501C9.44809 14.9429 9.80627 15.3011 10.2481 15.3011C10.69 15.3011 11.0481 14.9429 11.0481 14.501Z" fill="#5C5C5C"/>
<path fill-rule="evenodd" clip-rule="evenodd" d="M14.5496 14.501C14.5496 14.0592 14.1914 13.701 13.7496 13.701C13.3077 13.701 12.9496 14.0592 12.9496 14.501C12.9496 14.9429 13.3077 15.3011 13.7496 15.3011C14.1914 15.3011 14.5496 14.9429 14.5496 14.501Z" fill="#5C5C5C"/>
<path fill-rule="evenodd" clip-rule="evenodd" d="M18.0521 11.4998C18.0521 11.0579 17.6939 10.6998 17.252 10.6998C16.8102 10.6998 16.452 11.0579 16.452 11.4998C16.452 11.9416 16.8102 12.2998 17.252 12.2998C17.6939 12.2998 18.0521 11.9416 18.0521 11.4998Z" fill="#5C5C5C"/>
<path fill-rule="evenodd" clip-rule="evenodd" d="M18.0521 14.501C18.0521 14.0592 17.6939 13.701 17.252 13.701C16.8102 13.701 16.452 14.0592 16.452 14.501C16.452 14.9429 16.8102 15.3011 17.252 15.3011C17.6939 15.3011 18.0521 14.9429 18.0521 14.501Z" fill="#5C5C5C"/>
<path fill-rule="evenodd" clip-rule="evenodd" d="M18.0521 17.5023C18.0521 17.0604 17.6939 16.7023 17.252 16.7023C16.8102 16.7023 16.452 17.0604 16.452 17.5023C16.452 17.9441 16.8102 18.3023 17.252 18.3023C17.6939 18.3023 18.0521 17.9441 18.0521 17.5023Z" fill="#5C5C5C"/>
<path fill-rule="evenodd" clip-rule="evenodd" d="M7.54668 14.501C7.54668 14.0592 7.1885 13.701 6.74666 13.701C6.30482 13.701 5.94664 14.0592 5.94664 14.501C5.94664 14.9429 6.30482 15.3011 6.74666 15.3011C7.1885 15.3011 7.54668 14.9429 7.54668 14.501Z" fill="#5C5C5C"/>
<path fill-rule="evenodd" clip-rule="evenodd" d="M7.54668 17.5023C7.54668 17.0604 7.1885 16.7023 6.74666 16.7023C6.30482 16.7023 5.94664 17.0604 5.94664 17.5023C5.94664 17.9441 6.30482 18.3023 6.74666 18.3023C7.1885 18.3023 7.54668 17.9441 7.54668 17.5023Z" fill="#5C5C5C"/>
<path fill-rule="evenodd" clip-rule="evenodd" d="M11.0481 17.5023C11.0481 17.0604 10.69 16.7023 10.2481 16.7023C9.80628 16.7023 9.44809 17.0604 9.44809 17.5023C9.44809 17.9441 9.80627 18.3023 10.2481 18.3023C10.69 18.3023 11.0481 17.9441 11.0481 17.5023Z" fill="#5C5C5C"/>
<path fill-rule="evenodd" clip-rule="evenodd" d="M14.5496 17.5023C14.5496 17.0604 14.1914 16.7023 13.7496 16.7023C13.3077 16.7023 12.9496 17.0604 12.9496 17.5023C12.9496 17.9441 13.3077 18.3023 13.7496 18.3023C14.1914 18.3023 14.5496 17.9441 14.5496 17.5023Z" fill="#5C5C5C"/>
<path fill-rule="evenodd" clip-rule="evenodd" d="M5.99609 2.24625C3.92503 2.24625 2.24609 3.92518 2.24609 5.99625V7.99833V18.0037C2.24609 20.0748 3.92502 21.7537 5.99609 21.7537H18.0036C20.0747 21.7537 21.7536 20.0748 21.7536 18.0037V7.99833V5.99625C21.7536 3.92518 20.0747 2.24625 18.0036 2.24625H5.99609ZM5.99609 3.74625C4.75345 3.74625 3.74609 4.7536 3.74609 5.99625V7.24833H20.2536V5.99625C20.2536 4.75361 19.2462 3.74625 18.0036 3.74625H5.99609ZM3.74609 18.0037C3.74609 19.2464 4.75345 20.2537 5.99609 20.2537H18.0036C19.2462 20.2537 20.2536 19.2464 20.2536 18.0037V8.74833H3.74609V18.0037Z" fill="#5C5C5C"/>
<path d="M10.2481 10.6998C9.80628 10.6998 9.44809 11.0579 9.44809 11.4998C9.44809 11.9416 9.80627 12.2998 10.2481 12.2998C10.69 12.2998 11.0481 11.9416 11.0481 11.4998C11.0481 11.0579 10.69 10.6998 10.2481 10.6998Z" fill="#5C5C5C"/>
</svg>
