<svg width="16" height="16" viewBox="0 0 16 16" fill="none" xmlns="http://www.w3.org/2000/svg">
<path d="M15.5 14.5L12.7 11.7C14.9 8.90002 14.8 4.90002 12.2 2.30002C9.5 -0.399976 5 -0.399976 2.3 2.30002C-0.399998 5.00002 -0.399998 9.50002 2.3 12.2C4.9 14.8 8.9 14.9 11.7 12.7L14.5 15.5C14.8 15.8 15.3 15.8 15.6 15.5C15.8 15.2 15.8 14.8 15.5 14.5ZM3.4 11.2C1.2 9.00002 1.2 5.50002 3.4 3.40002C5.6 1.30002 9.1 1.20002 11.2 3.40002C13.3 5.50002 13.4 9.00002 11.3 11.2C11.3 11.2 11.3 11.2 11.2 11.3C11.2 11.3 11.2 11.3 11.1 11.4C9 13.3 5.5 13.3 3.4 11.2Z" fill="#5C5C5C"/>
</svg>
