<svg width="46" height="51" viewBox="0 0 46 51" fill="none" xmlns="http://www.w3.org/2000/svg">
<path d="M22.8415 16.0775L4.67189 7.68359C4.29727 7.51086 3.87971 7.45038 3.47074 7.50962C2.18447 7.68792 1.00585 8.94964 1.00335 10.4813L0.932617 48.1044C0.932617 49.6559 2.12187 50.5684 3.39563 50.3913C3.88135 50.3239 4.37958 50.0979 4.82837 49.6899L20.1669 35.7349L13.522 32.665C11.9768 31.9528 11.2538 30.48 11.1824 29.0956C11.1113 27.7154 11.6561 26.2535 12.8121 25.202L22.8415 16.0775Z" fill="url(#paint0_radial_110_4219)"/>
<path d="M42.9798 0.906967C44.2555 0.729905 45.446 1.64245 45.4429 3.19391L45.3728 40.817C45.3696 42.3474 44.191 43.6091 42.9054 43.7887C42.4964 43.848 42.0788 43.7875 41.7042 43.6147L14.3231 30.9647C12.7583 30.2435 12.6394 27.9076 14.0959 26.5828L41.5471 1.6084C41.9965 1.20042 42.4941 0.974448 42.9798 0.906967Z" fill="url(#paint1_radial_110_4219)"/>
<defs>
<radialGradient id="paint0_radial_110_4219" cx="0" cy="0" r="1" gradientUnits="userSpaceOnUse" gradientTransform="translate(66.5584 17.6014) rotate(173.014) scale(65.9917 25.1925)">
<stop stop-color="#E02E2E"/>
<stop offset="1" stop-color="#EE215B"/>
</radialGradient>
<radialGradient id="paint1_radial_110_4219" cx="0" cy="0" r="1" gradientUnits="userSpaceOnUse" gradientTransform="translate(0.839572 33.4259) rotate(-9.87552) scale(45.2207 25.6163)">
<stop stop-color="#0091FF"/>
<stop offset="1" stop-color="#1846C7"/>
</radialGradient>
</defs>
</svg>
