<svg width="36" height="33" viewBox="0 0 36 33" fill="none" xmlns="http://www.w3.org/2000/svg">
<path d="M18.2584 27.1122L18.0002 26.956L17.7416 27.1117L9.44165 32.1117L9.44076 32.1123C8.30114 32.802 6.90637 31.7845 7.20666 30.4933L9.40661 21.0535L9.47508 20.7597L9.24708 20.5621L1.90708 14.2021L1.90691 14.202C0.900176 13.3305 1.44439 11.683 2.75931 11.5785L2.76195 11.5782L12.4219 10.7582L12.7221 10.7327L12.8399 10.4555L16.6199 1.55548L16.6207 1.55354C17.1292 0.34218 18.8702 0.34218 19.3786 1.55354L19.3793 1.55511L23.1593 10.4751L23.2769 10.7527L23.5774 10.7782L33.2374 11.5982L33.24 11.5984C34.5549 11.703 35.0991 13.3505 34.0924 14.222L34.0922 14.2221L26.7522 20.5821L26.5242 20.7797L26.5927 21.0735L28.7927 30.5133C28.7927 30.5134 28.7927 30.5134 28.7927 30.5135C29.0928 31.8046 27.6981 32.822 26.5586 32.1323L26.5584 32.1322L18.2584 27.1122Z" fill="white" stroke="#858585"/>
</svg>
