<svg width="24" height="24" viewBox="0 0 24 24" fill="none" xmlns="http://www.w3.org/2000/svg">
<path fill-rule="evenodd" clip-rule="evenodd" d="M9.17297 3.75C6.27319 3.75 3.92297 6.10021 3.92297 9V15C3.92297 17.8998 6.27319 20.25 9.17297 20.25H12.283V19.053C12.283 18.229 12.4306 17.4395 12.7008 16.7096C12.4774 16.7356 12.2437 16.75 12 16.75C10.7527 16.75 9.75473 16.3756 9.07041 16.0025C8.72814 15.8158 8.46144 15.628 8.27697 15.4837C8.18456 15.4114 8.11226 15.3495 8.06089 15.3036C8.03519 15.2807 8.01467 15.2616 7.99944 15.2472L7.98056 15.2291L7.9741 15.2228L7.97162 15.2203L7.97057 15.2193C7.97057 15.2193 7.96964 15.2183 8.49997 14.688L7.96964 15.2183C7.67675 14.9254 7.67675 14.4506 7.96964 14.1577C8.26153 13.8658 8.73413 13.8648 9.02726 14.1546L9.03104 14.1583C9.0361 14.1631 9.04591 14.1722 9.06035 14.1851C9.08928 14.211 9.13657 14.2516 9.20135 14.3023C9.33126 14.404 9.52931 14.5442 9.78854 14.6855C10.3072 14.9684 11.0593 15.25 12 15.25C12.6655 15.25 13.2308 15.1074 13.6935 14.9227C14.9281 13.3289 16.8606 12.303 19.033 12.303H20.076V9C20.076 6.10021 17.7258 3.75 14.826 3.75H9.17297ZM21.576 13.0139V9C21.576 5.27179 18.5542 2.25 14.826 2.25H9.17297C5.44476 2.25 2.42297 5.27179 2.42297 9V15C2.42297 18.7282 5.44476 21.75 9.17297 21.75H14.827C18.554 21.75 21.577 18.7284 21.576 15V13.0921C21.5766 13.0791 21.577 13.0661 21.577 13.053C21.577 13.0399 21.5766 13.0269 21.576 13.0139ZM20.076 13.803H19.033C17.3215 13.803 15.8014 14.6217 14.843 15.889C14.8122 15.9454 14.774 15.9981 14.7291 16.0455C14.1328 16.8972 13.783 17.9342 13.783 19.053V20.25H14.827C17.7259 20.25 20.0768 17.8997 20.076 15.0002V13.803ZM9.99997 9.25C10.4142 9.25 10.75 9.58579 10.75 10V11C10.75 11.4142 10.4142 11.75 9.99997 11.75C9.58576 11.75 9.24997 11.4142 9.24997 11V10C9.24997 9.58579 9.58576 9.25 9.99997 9.25ZM14 9.25C14.4142 9.25 14.75 9.58579 14.75 10V11C14.75 11.4142 14.4142 11.75 14 11.75C13.5858 11.75 13.25 11.4142 13.25 11V10C13.25 9.58579 13.5858 9.25 14 9.25Z" fill="#1846C7"/>
</svg>
