<svg width="32" height="32" viewBox="0 0 32 32" fill="none" xmlns="http://www.w3.org/2000/svg">
<rect width="32" height="32" rx="16" fill="#C8D3F2"/>
<path d="M22.053 6.36518C20.302 5.90548 18.4394 6.42375 17.1776 7.72133L13.4801 11.4188C12.538 12.3603 12.0085 13.6378 12.0085 14.9696C12.0085 16.2466 12.4951 17.4734 13.3656 18.4022C13.3962 18.4505 13.4325 18.4956 13.474 18.5363C13.8801 18.9346 14.3516 19.2603 14.868 19.499C15.244 19.6728 15.6897 19.5089 15.8635 19.1329C16.0373 18.7569 15.8734 18.3112 15.4974 18.1374C15.1788 17.9902 14.8847 17.7955 14.625 17.5603C14.5999 17.5244 14.5717 17.4907 14.5403 17.4593C13.8797 16.7992 13.5085 15.9035 13.5085 14.9696C13.5085 14.0357 13.8797 13.14 14.5403 12.4799L18.2421 8.77814L18.25 8.77005C19.135 7.85787 20.4428 7.49327 21.6721 7.81601C22.9013 8.13875 23.8613 9.09876 24.1841 10.328C24.5068 11.5573 24.1422 12.8651 23.23 13.75L23.2219 13.758L21.4912 15.4887C21.1983 15.7816 21.1983 16.2565 21.4912 16.5494C21.7841 16.8423 22.259 16.8423 22.5519 16.5494L24.2787 14.8225C25.5763 13.5607 26.0946 11.698 25.6349 9.9471C25.1747 8.19428 23.8058 6.82538 22.053 6.36518Z" fill="#5C5C5C"/>
<path d="M17.1215 12.5113C16.7456 12.3373 16.2998 12.5009 16.1258 12.8767C15.9517 13.2526 16.1153 13.6984 16.4912 13.8725C16.8508 14.0389 17.1791 14.2658 17.4621 14.5431C18.1212 15.203 18.4915 16.0977 18.4915 17.0305C18.4915 17.9644 18.1203 18.8601 17.4597 19.5202L13.7622 23.2177C12.3809 24.5538 10.1829 24.5359 8.8235 23.1766C7.46413 21.8172 7.44623 19.6192 8.78233 18.2379L10.5088 16.5114C10.8017 16.2185 10.8017 15.7436 10.5088 15.4507C10.2159 15.1578 9.74107 15.1578 9.44818 15.4507L7.71746 17.1814L7.70949 17.1895C5.79892 19.1588 5.82267 22.2971 7.76284 24.2372C9.703 26.1774 12.8412 26.2012 14.8105 24.2906L14.8186 24.2826L18.52 20.5813C19.462 19.6398 19.9915 18.3623 19.9915 17.0305C19.9915 15.6985 19.4621 14.4212 18.52 13.4797L18.5153 13.4751C18.1093 13.0764 17.6379 12.7504 17.1215 12.5113Z" fill="#5C5C5C"/>
</svg>
