<svg width="24" height="24" viewBox="0 0 24 24" fill="none" xmlns="http://www.w3.org/2000/svg">
<path fill-rule="evenodd" clip-rule="evenodd" d="M2.25 19C2.25 16.3766 4.37665 14.25 7 14.25H10C10.4142 14.25 10.75 14.5858 10.75 15C10.75 15.4142 10.4142 15.75 10 15.75H7C5.20507 15.75 3.75 17.2051 3.75 19V20C3.75 20.4142 3.41421 20.75 3 20.75C2.58579 20.75 2.25 20.4142 2.25 20V19Z" fill="#5C5C5C"/>
<path fill-rule="evenodd" clip-rule="evenodd" d="M13.25 21C13.25 20.5858 13.5858 20.25 14 20.25H20C20.4142 20.25 20.75 20.5858 20.75 21C20.75 21.4142 20.4142 21.75 20 21.75H14C13.5858 21.75 13.25 21.4142 13.25 21Z" fill="#5C5C5C"/>
<path fill-rule="evenodd" clip-rule="evenodd" d="M18.0415 12.75C17.9752 12.75 17.9116 12.7763 17.8647 12.8232L14.8232 15.8647C14.7763 15.9116 14.75 15.9752 14.75 16.0415V17.25H15.9585C16.0248 17.25 16.0884 17.2237 16.1353 17.1768L19.1768 14.1353C19.2744 14.0376 19.2744 13.8794 19.1768 13.7817L18.2183 12.8232C18.1714 12.7763 18.1078 12.75 18.0415 12.75ZM16.8041 11.7626C17.1323 11.4344 17.5774 11.25 18.0415 11.25C18.5057 11.25 18.9508 11.4344 19.279 11.7626L20.2375 12.7211C20.9209 13.4045 20.9209 14.5125 20.2375 15.1959L17.1959 18.2374C16.8677 18.5656 16.4226 18.75 15.9585 18.75H14.5C13.8096 18.75 13.25 18.1904 13.25 17.5V16.0415C13.25 15.5774 13.4344 15.1323 13.7626 14.8041L16.8041 11.7626Z" fill="#5C5C5C"/>
<path fill-rule="evenodd" clip-rule="evenodd" d="M11 3.75C9.20507 3.75 7.75 5.20507 7.75 7C7.75 8.79493 9.20507 10.25 11 10.25C12.7949 10.25 14.25 8.79493 14.25 7C14.25 5.20507 12.7949 3.75 11 3.75ZM6.25 7C6.25 4.37665 8.37665 2.25 11 2.25C13.6234 2.25 15.75 4.37665 15.75 7C15.75 9.62335 13.6234 11.75 11 11.75C8.37665 11.75 6.25 9.62335 6.25 7Z" fill="#5C5C5C"/>
</svg>
