<svg width="32" height="32" viewBox="0 0 32 32" fill="none" xmlns="http://www.w3.org/2000/svg">
<rect width="32" height="32" rx="16" fill="#C8D3F2"/>
<path d="M21.3489 13.425C21.4126 13.6013 21.4038 13.7957 21.3242 13.9654C20.9216 14.7264 20.4316 15.4379 19.8642 16.0854C19.6693 16.3173 19.4478 16.5254 19.2042 16.7054C19.4451 16.8959 19.6723 17.1031 19.8842 17.3254C20.4505 18.0202 20.9338 18.7787 21.3242 19.5854C21.3953 19.7563 21.3998 19.9475 21.3369 20.1215C21.274 20.2955 21.1481 20.4396 20.9842 20.5254H20.6842C20.5505 20.5269 20.4191 20.49 20.3057 20.4191C20.1923 20.3482 20.1015 20.2463 20.0442 20.1254C19.7067 19.4813 19.2975 18.8775 18.8242 18.3254C18.624 18.0632 18.3711 17.8458 18.0817 17.6873C17.7924 17.5289 17.473 17.4328 17.1442 17.4054H16.6242V19.7454C16.6242 19.9311 16.5505 20.1091 16.4192 20.2404C16.2879 20.3717 16.1099 20.4454 15.9242 20.4454C15.0854 20.3945 14.2708 20.1449 13.5475 19.7172C12.8242 19.2895 12.2129 18.6959 11.7642 17.9854C10.7498 16.7335 10.0625 15.249 9.7642 13.6654C9.7642 13.5735 9.78231 13.4825 9.81749 13.3976C9.85267 13.3126 9.90423 13.2355 9.96923 13.1705C10.0342 13.1055 10.1114 13.0539 10.1963 13.0187C10.2813 12.9835 10.3723 12.9654 10.4642 12.9654C10.6499 12.9654 10.8279 13.0392 10.9592 13.1705C11.0905 13.3017 11.1642 13.4798 11.1642 13.6654C11.4776 14.9489 12.0643 16.1495 12.8842 17.1854C13.4368 18.0255 14.2639 18.6475 15.2242 18.9454V14.3254H14.7042C14.5253 14.3257 14.353 14.2575 14.2228 14.1348C14.0927 14.012 14.0144 13.8441 14.0042 13.6654C14.0042 13.4798 14.078 13.3017 14.2092 13.1705C14.3405 13.0392 14.5186 12.9654 14.7042 12.9654H15.9242C16.1099 12.9654 16.2879 13.0392 16.4192 13.1705C16.5505 13.3017 16.6242 13.4798 16.6242 13.6654V16.0054H17.1442C17.4644 15.99 17.7777 15.9072 18.0638 15.7625C18.3498 15.6177 18.6021 15.4143 18.8042 15.1654C19.2979 14.625 19.7152 14.0193 20.0442 13.3654C20.1238 13.1957 20.2675 13.0645 20.4438 13.0008C20.6201 12.937 20.8145 12.9459 20.9842 13.0254C21.1539 13.105 21.2851 13.2487 21.3489 13.425Z" fill="#5C5C5C"/>
<path fill-rule="evenodd" clip-rule="evenodd" d="M11.4889 6.32544H20.4889C21.8664 6.33071 23.186 6.88025 24.1601 7.8543C25.1341 8.82835 25.6837 10.1479 25.6889 11.5254V20.5254C25.6889 21.9046 25.1411 23.2272 24.1659 24.2024C23.1907 25.1776 21.8681 25.7254 20.4889 25.7254H11.4889C10.1098 25.7254 8.78717 25.1776 7.81199 24.2024C6.8368 23.2272 6.28894 21.9046 6.28894 20.5254V11.5254C6.29421 10.1479 6.84376 8.82835 7.8178 7.8543C8.79185 6.88025 10.1114 6.33071 11.4889 6.32544ZM23.1759 23.2124C23.8886 22.4998 24.2889 21.5333 24.2889 20.5254V11.5254C24.2889 10.5176 23.8886 9.55107 23.1759 8.83843C22.4633 8.1258 21.4968 7.72544 20.4889 7.72544H11.4889C10.4811 7.72544 9.51457 8.1258 8.80193 8.83843C8.0893 9.55107 7.68894 10.5176 7.68894 11.5254V20.5254C7.68894 21.5333 8.0893 22.4998 8.80193 23.2124C9.51457 23.9251 10.4811 24.3254 11.4889 24.3254H20.4889C21.4968 24.3254 22.4633 23.9251 23.1759 23.2124Z" fill="#5C5C5C"/>
</svg>
