<svg width="24" height="24" viewBox="0 0 24 24" fill="none" xmlns="http://www.w3.org/2000/svg">
<path d="M16.0851 13.6564C15.7991 13.6827 15.5334 13.8124 15.34 14.0199C15.1467 14.2274 15.0395 14.4979 15.0395 14.7785C15.0395 15.0591 15.1467 15.3296 15.34 15.5371C15.5334 15.7447 15.7991 15.8743 16.0851 15.9007C16.2451 15.9154 16.4065 15.8974 16.5589 15.8477C16.7113 15.798 16.8514 15.7178 16.9703 15.6121C17.0891 15.5065 17.1841 15.3778 17.2491 15.2342C17.314 15.0907 17.3476 14.9355 17.3476 14.7785C17.3476 14.6216 17.314 14.4664 17.2491 14.3228C17.1841 14.1793 17.0891 14.0506 16.9703 13.9449C16.8514 13.8393 16.7113 13.7591 16.5589 13.7094C16.4065 13.6597 16.2451 13.6416 16.0851 13.6564Z" fill="#5C5C5C"/>
<path fill-rule="evenodd" clip-rule="evenodd" d="M16.8511 7.46218H19.1489C19.8938 7.46218 20.6081 7.75118 21.1348 8.26559C21.6615 8.78 21.9574 9.4777 21.9574 10.2052V19.2621C21.9574 19.9896 21.6615 20.6873 21.1348 21.2017C20.6081 21.7161 19.8938 22.0051 19.1489 22.0051H4.85106C4.1062 22.0051 3.39185 21.7161 2.86515 21.2017C2.33845 20.6873 2.04255 19.9896 2.04255 19.2621V8.57933C2.04085 8.02582 2.21065 7.48475 2.52963 7.02723C2.84861 6.56971 3.30185 6.21715 3.82979 6.01587L14.4306 2.10585C14.7026 2.00698 14.9948 1.97348 15.2828 2.00821C15.5708 2.04293 15.846 2.14484 16.0851 2.30534C16.3241 2.46685 16.519 2.68316 16.6525 2.93532C16.7861 3.18748 16.8542 3.46778 16.8511 3.75165V7.46218ZM20.4255 19.2621C20.4255 19.5928 20.291 19.9099 20.0516 20.1437C19.8122 20.3775 19.4875 20.5089 19.1489 20.5089H4.85106C4.51249 20.5089 4.18778 20.3775 3.94837 20.1437C3.70897 19.9099 3.57447 19.5928 3.57447 19.2621V8.95837H19.1489C19.4875 8.95837 19.8122 9.08973 20.0516 9.32355C20.291 9.55738 20.4255 9.87451 20.4255 10.2052V19.2621ZM14.9719 3.51226L4.4017 7.46218H15.3191V3.72173C15.3196 3.68046 15.3096 3.63972 15.29 3.60316C15.2704 3.5666 15.2418 3.53537 15.2068 3.51226C15.1708 3.49306 15.1304 3.48299 15.0894 3.48299C15.0483 3.48299 15.0079 3.49306 14.9719 3.51226Z" fill="#5C5C5C"/>
</svg>
